<?xml version="1.0" encoding="utf-8"?>
<svg version="1.1" xmlns="http://www.w3.org/2000/svg" width="900px" height="600px">
<path fill="#3E8BC3" d="M0,0h900v600H0V0z"/>
<g fill="#FFF">
<path d="M476.4,146.4c-4.5-2.7-8.4-6.3-12.3-10.2c-5.4-5.1-9.6-10.8-13.2-16.5
	c-3.6,5.7-7.8,11.4-13.2,16.5c-3.9,3.9-7.8,7.5-12.3,10.2c-6.6,4.8-13.5,8.7-21,11.4
	c-25.5,7.2-48.3,21.3-68.4,41.1l-0.3,0.3l98.7,33.9c6.9,3,11.1,5.7,13.2,8.1c1.2,1.8,2.4,3.3,3,3.9
	c0.3,0.3,0.3,0.6,0.3,0.6l0,0c0.3,0,0.3-0.3,0.6-0.6C461.1,235.5,472.8,231,486.3,231
	c13.2,0,24.9,4.5,34.2,13.8l0.6-0.3l0,0c0,0,0,0.3,0.3,0.3c1.2,1.2,2.4,2.4,3.6,3.6
	c16.5,18.3,24.9,40.2,24.9,65.4c-0.3,27-9.9,50.1-28.8,69c-18.6,18.6-40.5,28.2-66,28.8v64.8
	c42.9-0.9,79.8-16.8,110.7-47.7c31.8-31.5,47.7-69.9,47.7-114.9c0-44.7-15.9-83.1-47.7-114.9
	c-20.1-19.8-42.9-33.9-68.4-40.8h0.3C489.9,155.1,483,151.2,476.4,146.4"/>
<path d="M582.6,204.3c12.9,14.7,22.5,31.5,28.8,50.4l103.8-35.1l27.3-73.2L582.6,204.3"/>
<path d="M711.9,228.6l-97.8,34.5c4.8,17.4,7.2,36.6,7.2,57.3l64.2-21.3L711.9,228.6"/>
<path d="M165.3,149.1l25.8,72.9l169.2,56.1c2.7-6.9,6.3-13.5,10.5-19.8c3.3-4.8,7.2-9.6,11.7-13.8
	c3-3,6.3-6,9.3-8.4c3-2.4,6.3-4.5,9.6-6.6L165.3,149.1"/>
<path d="M357.6,286.5l-163.2-55.2l23.7,66.9l141.3,48.9C355.8,336.9,354,325.5,354,313.8
	C354,304.2,355.2,295.2,357.6,286.5"/>
<path d="M446.1,411.6c-24.601-1.201-45.9-10.8-63.6-28.8C374.4,375,368.1,366,363.6,356.7
	L289.2,332.1c3.9,37.2,19.5,69.3,46.8,96.6c30.6,30.6,67.2,46.5,110.1,47.7V411.6"/>
</g>
</svg>
